<?xml version="1.0" standalone="no"?>
<!DOCTYPE svg PUBLIC "-//W3C//DTD SVG 20010904//EN"
 "http://www.w3.org/TR/2001/REC-SVG-20010904/DTD/svg10.dtd">
<svg version="1.0" xmlns="http://www.w3.org/2000/svg"
 width="737.000000pt" height="737.000000pt" viewBox="0 0 737.000000 737.000000"
 preserveAspectRatio="xMidYMid meet">
<metadata>
Created by potrace 1.11, written by Peter Selinger 2001-2013
</metadata>
<g transform="translate(0.000000,737.000000) scale(0.100000,-0.100000)"
fill="#000000" stroke="none">
<path d="M3584 7282 c-29 -48 -118 -199 -198 -337 -81 -137 -151 -257 -156
-265 -51 -85 -119 -201 -135 -229 -11 -20 -67 -115 -124 -211 -124 -209 -207
-350 -286 -485 -32 -55 -65 -108 -73 -117 -11 -13 -12 -18 -3 -18 7 0 25 -8
39 -19 71 -49 270 -142 392 -182 70 -22 201 -55 260 -64 25 -4 54 -9 65 -11
42 -8 183 -18 260 -18 84 0 264 12 274 18 3 2 27 7 53 10 38 5 103 21 248 60
97 26 388 164 444 210 l25 21 -119 200 c-66 110 -124 207 -129 215 -27 44
-210 348 -231 385 -14 24 -63 107 -110 186 -47 78 -92 153 -100 168 -43 73
-342 571 -343 571 -1 0 -25 -39 -53 -88z"/>
<path d="M2182 2446 l3 -2441 505 0 505 0 -3 1550 c-2 853 -4 1876 -5 2274
l-3 725 -409 134 c-226 73 -452 148 -503 167 l-92 33 2 -2442z"/>
<path d="M5085 4855 c-75 -28 -656 -219 -857 -282 l-58 -18 0 -50 c-1 -54 -11
-2986 -13 -3925 l-2 -575 513 0 c335 0 512 3 513 10 3 56 3 4875 -1 4874 -3
-1 -45 -16 -95 -34z"/>
</g>
</svg>
