<?xml version="1.0" standalone="no"?>
<!DOCTYPE svg PUBLIC "-//W3C//DTD SVG 20010904//EN"
 "http://www.w3.org/TR/2001/REC-SVG-20010904/DTD/svg10.dtd">
<svg version="1.0" xmlns="http://www.w3.org/2000/svg"
 width="261.000000pt" height="261.000000pt" viewBox="0 0 261.000000 261.000000"
 preserveAspectRatio="xMidYMid meet">
<metadata>
Created by potrace 1.11, written by Peter Selinger 2001-2013
</metadata>
<g transform="translate(0.000000,261.000000) scale(0.100000,-0.100000)"
fill="#000000" stroke="none">
<path d="M1288 1618 c-8 -7 -64 -114 -124 -238 l-109 -225 -3 -295 c-2 -162 0
-305 3 -318 4 -18 11 -23 33 -20 l27 3 5 313 c5 296 6 314 24 328 29 21 60 17
86 -11 13 -14 28 -25 34 -25 8 0 10 -47 8 -148 -4 -160 3 -181 48 -167 19 6
20 14 20 156 0 142 -1 150 -20 157 -20 8 -20 8 4 31 l25 24 26 -32 c31 -36 54
-39 80 -11 10 11 22 17 26 14 5 -3 9 -142 9 -309 0 -262 2 -306 16 -319 12
-12 20 -13 35 -6 18 10 19 25 19 323 l-1 312 -117 235 c-64 129 -122 236 -127
238 -6 1 -18 -3 -27 -10z m115 -300 c52 -107 54 -115 41 -140 -18 -34 -27 -35
-48 -3 -9 13 -25 29 -36 35 -18 10 -25 6 -50 -20 l-30 -32 -31 26 c-17 15 -43
26 -60 26 -16 0 -29 2 -29 5 0 3 24 52 52 110 l53 105 41 0 42 0 55 -112z"/>
<path d="M1172 1068 c-9 -9 -12 -77 -12 -264 0 -266 3 -281 47 -272 17 3 18
21 18 273 0 263 -1 270 -20 273 -11 1 -26 -3 -33 -10z"/>
<path d="M1382 958 c-9 -9 -12 -74 -12 -229 0 -185 2 -218 16 -230 11 -9 20
-10 32 -2 15 9 17 37 20 228 2 217 -1 245 -32 245 -7 0 -17 -5 -24 -12z"/>
</g>
</svg>
