<?xml version="1.0" standalone="no"?>
<!DOCTYPE svg PUBLIC "-//W3C//DTD SVG 20010904//EN"
 "http://www.w3.org/TR/2001/REC-SVG-20010904/DTD/svg10.dtd">
<svg version="1.0" xmlns="http://www.w3.org/2000/svg"
 width="1454.000000pt" height="1454.000000pt" viewBox="0 0 1454.000000 1454.000000"
 preserveAspectRatio="xMidYMid meet">
<metadata>
Created by potrace 1.11, written by Peter Selinger 2001-2013
</metadata>
<g transform="translate(0.000000,1454.000000) scale(0.100000,-0.100000)"
fill="#000000" stroke="none">
<path d="M7159 14493 c-8 -15 -40 -72 -71 -125 -32 -53 -58 -101 -58 -107 0
-5 -3 -11 -8 -13 -6 -3 -140 -226 -181 -302 -9 -17 -20 -35 -24 -40 -4 -6 -75
-126 -157 -266 -82 -140 -154 -262 -159 -270 -11 -17 -144 -243 -182 -310 -15
-25 -54 -91 -88 -148 -33 -57 -61 -107 -61 -112 0 -5 -3 -10 -8 -12 -10 -4
-132 -214 -132 -228 0 -5 -3 -10 -8 -10 -4 0 -18 -21 -32 -47 -13 -27 -27 -50
-30 -53 -4 -3 -10 -12 -14 -20 -4 -8 -12 -24 -19 -35 -7 -11 -29 -49 -50 -85
-43 -75 -56 -95 -78 -130 -9 -14 -27 -45 -41 -70 -14 -25 -35 -61 -46 -80 -31
-51 -76 -130 -98 -170 -10 -19 -21 -37 -24 -40 -3 -3 -11 -16 -19 -30 -8 -14
-44 -74 -80 -135 -35 -60 -71 -123 -79 -140 -9 -16 -18 -32 -22 -35 -4 -3 -18
-25 -32 -50 -14 -25 -48 -84 -77 -132 -28 -48 -51 -91 -51 -97 0 -6 -4 -11 -9
-11 -5 0 -12 -8 -15 -17 -13 -35 -37 -73 -47 -73 -5 0 -9 -5 -9 -12 0 -6 3 -9
6 -5 3 3 34 -11 68 -33 77 -48 180 -106 226 -127 19 -8 42 -21 50 -27 8 -7 47
-26 85 -42 39 -16 72 -32 73 -36 2 -5 10 -8 18 -8 7 0 35 -10 61 -21 27 -12
57 -25 68 -29 11 -4 31 -12 45 -19 45 -20 297 -100 397 -125 109 -28 115 -29
261 -56 126 -24 199 -34 342 -47 110 -10 531 -10 635 0 89 9 139 15 188 22 17
2 50 7 72 10 22 3 63 10 91 15 28 6 64 13 80 16 47 8 235 54 289 71 159 49
414 144 500 186 17 8 48 23 70 33 22 10 43 22 46 27 3 5 9 8 13 8 13 -2 115
52 247 131 139 84 145 90 114 128 -7 8 -24 35 -38 60 -26 47 -70 122 -90 154
-61 99 -77 126 -77 136 0 5 -4 10 -10 10 -5 0 -10 5 -10 10 0 6 -22 47 -50 91
-27 44 -50 85 -50 90 0 5 -4 9 -10 9 -5 0 -10 4 -10 10 0 7 -85 155 -150 260
-60 98 -110 182 -110 186 0 3 -5 10 -10 17 -6 7 -46 73 -90 147 -43 74 -82
140 -87 146 -8 10 -17 25 -55 93 -12 20 -28 48 -37 63 -9 15 -79 132 -155 260
-76 128 -163 272 -193 320 -29 48 -53 92 -53 98 0 5 -4 10 -10 10 -5 0 -10 4
-10 9 0 6 -123 218 -169 291 -14 22 -163 272 -177 295 -6 11 -25 43 -42 70
-17 28 -40 66 -50 85 -28 51 -90 153 -102 167 -5 7 -10 15 -10 18 0 3 -16 31
-35 61 -19 30 -35 57 -35 60 0 3 -12 24 -27 47 -16 23 -33 51 -39 62 -16 29
-30 28 -45 -2z"/>
<path d="M4310 4816 l0 -4816 1002 2 1003 3 -2 525 c-2 610 -11 3612 -19 6455
-4 1478 -8 1981 -17 1987 -10 6 -405 137 -431 143 -6 1 -18 5 -26 8 -16 7
-314 105 -630 208 -102 33 -193 64 -202 69 -10 6 -26 10 -36 10 -10 0 -22 3
-26 7 -3 4 -12 8 -19 9 -7 1 -82 25 -167 53 -85 28 -177 58 -205 67 -27 9 -57
18 -65 22 -8 3 -18 6 -22 7 -5 2 -9 3 -10 5 -2 1 -10 3 -18 5 -12 2 -73 28
-102 43 -5 2 -8 -2163 -8 -4812z"/>
<path d="M10182 9609 c-18 -10 -34 -19 -37 -19 -3 0 -6 0 -7 -1 -2 0 -10 -2
-18 -4 -8 -2 -54 -17 -102 -33 -47 -17 -89 -28 -92 -24 -3 3 -6 1 -6 -5 0 -5
-6 -10 -12 -10 -7 0 -56 -15 -108 -33 -52 -17 -99 -33 -105 -34 -5 -2 -17 -6
-25 -9 -14 -5 -338 -109 -350 -112 -3 -1 -12 -4 -20 -8 -8 -3 -67 -22 -130
-42 -63 -20 -122 -39 -130 -42 -8 -4 -18 -7 -22 -8 -5 -2 -9 -3 -10 -5 -2 -1
-10 -3 -18 -5 -8 -2 -64 -20 -125 -40 -60 -20 -117 -38 -125 -40 -8 -2 -35
-11 -60 -20 -25 -9 -52 -18 -60 -20 -8 -2 -27 -8 -42 -14 -16 -6 -28 -8 -28
-5 0 4 -6 2 -12 -4 -7 -5 -66 -26 -130 -46 -65 -19 -130 -42 -145 -49 l-27
-15 -3 -748 c-1 -412 -4 -1620 -7 -2684 -4 -1064 -8 -2744 -11 -3732 l-6
-1798 1011 0 1010 0 0 4815 c0 2648 -3 4815 -7 4814 -5 0 -23 -9 -41 -20z"/>
</g>
</svg>
