<?xml version="1.0" standalone="no"?>
<!DOCTYPE svg PUBLIC "-//W3C//DTD SVG 20010904//EN"
 "http://www.w3.org/TR/2001/REC-SVG-20010904/DTD/svg10.dtd">
<svg version="1.0" xmlns="http://www.w3.org/2000/svg"
 width="226.000000pt" height="226.000000pt" viewBox="0 0 226.000000 226.000000"
 preserveAspectRatio="xMidYMid meet">
<metadata>
Created by potrace 1.11, written by Peter Selinger 2001-2013
</metadata>
<g transform="translate(0.000000,226.000000) scale(0.100000,-0.100000)"
fill="#000000" stroke="none">
<path d="M1020 2103 c-51 -87 -100 -171 -110 -188 -9 -16 -38 -65 -64 -109
-26 -43 -45 -80 -44 -81 129 -87 345 -114 495 -61 52 18 120 53 128 66 3 5 -5
26 -18 47 -14 21 -82 135 -152 253 -70 118 -131 218 -135 223 -3 4 -48 -64
-100 -150z"/>
<path d="M672 755 l3 -748 148 1 c82 0 151 2 154 6 3 3 4 247 3 543 -1 296 -2
606 -2 690 l0 152 -142 47 c-77 26 -147 49 -154 52 -10 3 -12 -147 -10 -743z"/>
<path d="M1433 1451 c-79 -26 -146 -50 -149 -54 -4 -4 -8 -317 -9 -697 l-2
-690 28 -1 c16 0 86 -1 157 -1 l127 -1 2 747 c1 410 -1 746 -5 745 -4 0 -71
-22 -149 -48z"/>
</g>
</svg>
