<svg xmlns="http://www.w3.org/2000/svg" viewBox="0 0 1137.86 144.79"><defs><style>.cls-1{fill:#fff;}.cls-2{fill:#ebbc43;}</style></defs><title>_wordmarkWhite</title><g id="Layer_2" data-name="Layer 2"><g id="Layer_1-2" data-name="Layer 1"><path class="cls-1" d="M50.8,107a3.27,3.27,0,0,0,1.07,2.54,4,4,0,0,0,2.91,1H65.31v15.67a42.06,42.06,0,0,1-7.09,2.56,33.81,33.81,0,0,1-8.26.92,33.66,33.66,0,0,1-12.36-2.19,26.13,26.13,0,0,1-9.54-6.36,28.59,28.59,0,0,1-6.17-10.24,40.36,40.36,0,0,1-2.17-13.77,39.73,39.73,0,0,1,2-12.92,28.62,28.62,0,0,1,5.69-9.9,25.35,25.35,0,0,1,9-6.35A29.8,29.8,0,0,1,48.1,65.73a47.18,47.18,0,0,1,6.81.44,35.1,35.1,0,0,1,5.47,1.29,33.74,33.74,0,0,1,4.71,2c1.47.73,3,1.59,4.54,2.53a6.17,6.17,0,0,0,4.49,1,5.27,5.27,0,0,0,3.34-2.52L83,61.87a44,44,0,0,0-6.42-4.95A45,45,0,0,0,68.86,53a54.87,54.87,0,0,0-9.25-2.57,60.1,60.1,0,0,0-10.79-.92A55.25,55.25,0,0,0,28.6,53.07,44.91,44.91,0,0,0,13.22,62.9a43.16,43.16,0,0,0-9.79,15A51.87,51.87,0,0,0,0,97.14,49.5,49.5,0,0,0,3.6,116.2a43.81,43.81,0,0,0,10.21,15.11,46.81,46.81,0,0,0,15.93,9.92,57.65,57.65,0,0,0,20.81,3.56,59.32,59.32,0,0,0,17-2.4,49.52,49.52,0,0,0,15.19-7.62V96.3h-32Z"/><path class="cls-1" d="M151.13,110.24a16.74,16.74,0,0,0-2.92-3.44,19.68,19.68,0,0,0-3.51-2.47,31.6,31.6,0,0,0,8.41-4.24,27.22,27.22,0,0,0,6.17-6,26.17,26.17,0,0,0,3.84-7.56,29,29,0,0,0,1.3-8.77,28.42,28.42,0,0,0-2.06-10.94,21.49,21.49,0,0,0-6.47-8.58,32.18,32.18,0,0,0-11.37-5.62,59.88,59.88,0,0,0-16.71-2H98.52v93.19h19.27V108.24h6.55a7.91,7.91,0,0,1,3.89.77,7.52,7.52,0,0,1,2.41,2.45l17.73,28.59c1.46,2.48,3.8,3.71,7.06,3.71h17.42Zm-9.77-20a15.32,15.32,0,0,1-5.58,3.27,24.76,24.76,0,0,1-8.1,1.18h-9.89V65.21h10q9,0,13.4,3.67t4.4,10.27a17.79,17.79,0,0,1-1,6.17A12.83,12.83,0,0,1,141.36,90.24Z"/><path class="cls-1" d="M231,50.57H211.32L174.9,143.76H190a6.06,6.06,0,0,0,4-1.31,7.28,7.28,0,0,0,2.25-2.92l6.3-17.79H239.7l6.3,17.79a7.17,7.17,0,0,0,2.35,3.05,6.57,6.57,0,0,0,4.08,1.18h15Zm-23.76,57.81L217.35,80c.6-1.49,1.23-3.26,1.86-5.3s1.27-4.23,1.87-6.57c.63,2.31,1.3,4.47,1.95,6.47s1.31,3.77,1.9,5.28L235,108.38Z"/><path class="cls-1" d="M346,68.62a24.59,24.59,0,0,0-6.64-9.54,31.87,31.87,0,0,0-11.48-6.27,54.35,54.35,0,0,0-16.53-2.24H279.85v93.19h19.27v-32h12.21a52.1,52.1,0,0,0,16.24-2.28,32,32,0,0,0,11.51-6.39,25.82,25.82,0,0,0,6.8-9.83,34,34,0,0,0,2.24-12.59A32.62,32.62,0,0,0,346,68.62ZM324.59,92.57q-4.21,4.37-13.26,4.36H299.12V65.21h12.21a24.16,24.16,0,0,1,7.76,1.1,14.23,14.23,0,0,1,5.43,3.12,12.26,12.26,0,0,1,3.22,4.88,18.18,18.18,0,0,1,1.06,6.32C328.8,85.68,327.4,89.65,324.59,92.57Z"/><path class="cls-1" d="M440.12,56.56l-.25-.08-18-5.91h-1V90.13h-41V50.57H360.41v93.19H379.8V103.61h41v40.15h19.4V97.26Z"/><path class="cls-1" d="M478.29,50.57l-18.38,6-.14,46.51v40.69h19.39V50.57Z"/><path class="cls-1" d="M490.86,50.57V66.1h27.23v77.66h19.34V66.1h27.24V50.57Z"/><path class="cls-1" d="M635.63,65.66V50.57H576.28v93.19h59.35V128.67H595.69V104.2h31.08V89.62H595.69v-24Z"/><path class="cls-1" d="M793.32,52.88a2.57,2.57,0,0,0-1.58.51,2.32,2.32,0,0,0-.85,1.22L768,129.31c-.22.85-.41,1.78-.62,2.74s-.39,1.95-.6,3c-.22-1.06-.44-2.07-.68-3s-.5-1.85-.79-2.7l-25.69-74.7a3.38,3.38,0,0,0-.91-1.25,2.15,2.15,0,0,0-1.47-.48h-1.8a2.38,2.38,0,0,0-1.54.51,2.86,2.86,0,0,0-.91,1.22l-25.69,74.7a26.2,26.2,0,0,0-.78,2.77c-.2,1-.42,2-.63,3.09q-.58-3.3-1.28-5.86l-22.94-74.7a2.24,2.24,0,0,0-2.38-1.73h-5.45l28.64,90.88h5.84l26.91-78.87a32.52,32.52,0,0,0,.91-3.28,30.08,30.08,0,0,0,.91,3.28l26.84,78.87h5.91l28.59-90.88Z"/><path class="cls-1" d="M846.25,104.45a10.79,10.79,0,0,0-2.76-2.57,36.22,36.22,0,0,0,10.69-2.72,27.58,27.58,0,0,0,8.17-5.33,23,23,0,0,0,5.19-7.55,24,24,0,0,0,1.83-9.51q0-11.76-7.79-17.83t-23.49-6.06H814.83v90.88h6.63V102.65h11.89a18.18,18.18,0,0,1,2.28.14,6.57,6.57,0,0,1,1.59.41,4.17,4.17,0,0,1,1.23.81,10.9,10.9,0,0,1,1.06,1.21l29.16,36.88a3.71,3.71,0,0,0,1.38,1.32,4.44,4.44,0,0,0,1.84.34h5.65Zm-9-6.68H821.46V58.09h16.63q12.15,0,18.47,4.67t6.33,14.39a20.25,20.25,0,0,1-1.74,8.55,17.76,17.76,0,0,1-5,6.49,23,23,0,0,1-8.1,4.14A37.42,37.42,0,0,1,837.2,97.77Z"/><path class="cls-1" d="M892.82,52.88v90.88h6.61V52.88Z"/><path class="cls-1" d="M914.73,52.88v5.58h32.11v85.3h6.61V58.46h31.93V52.88Z"/><path class="cls-1" d="M1007.27,138.3V100.41h39.83V95.08h-39.83V58.34h47.86V52.88h-54.47v90.88h54.47l.14-5.46Z"/><path class="cls-1" d="M1106.59,104.45a11.12,11.12,0,0,0-2.76-2.57,36.22,36.22,0,0,0,10.69-2.72,27.47,27.47,0,0,0,8.15-5.33,23,23,0,0,0,5.21-7.55,24.32,24.32,0,0,0,1.83-9.51q0-11.76-7.81-17.83t-23.47-6.06h-23.26v90.88h6.61V102.65h11.89a17.68,17.68,0,0,1,2.28.14,6.63,6.63,0,0,1,1.61.41,4.21,4.21,0,0,1,1.21.81,10,10,0,0,1,1.07,1.21L1129,142.1a3.55,3.55,0,0,0,1.37,1.32,4.49,4.49,0,0,0,1.83.34h5.65Zm-9.07-6.68h-15.74V58.09h16.65q12.13,0,18.47,4.67t6.32,14.39a20.56,20.56,0,0,1-1.73,8.55,18,18,0,0,1-5.06,6.49,22.85,22.85,0,0,1-8.08,4.14A37.56,37.56,0,0,1,1097.52,97.77Z"/><polygon class="cls-2" points="479.3 48.44 479.3 143.76 459.3 143.76 459.42 102.34 459.56 55.02 478.27 48.91 478.7 48.77 479.3 48.44"/><polygon class="cls-2" points="440.55 143.76 420.71 143.76 420.71 48.44 421.03 48.62 421.31 48.77 421.73 48.91 440.03 54.93 440.29 55.02 440.41 96.44 440.55 143.76"/><path class="cls-1" d="M469.3,33.76h0L449.15,0,429,34.25V34l.53.33a36.7,36.7,0,0,0,39.16-.14Z"/></g></g></svg>