<svg id="svg" version="1.1" width="400" height="400" viewBox="0 0 400 400" xmlns="http://www.w3.org/2000/svg" xmlns:xlink="http://www.w3.org/1999/xlink" ><g id="svgg"><path id="path0" d="M195.600 0.398 C 195.600 0.643,195.150 1.505,194.600 2.314 C 194.050 3.123,193.600 4.104,193.600 4.493 C 193.600 4.882,193.420 5.200,193.200 5.200 C 192.980 5.200,192.800 5.520,192.800 5.912 C 192.800 6.303,192.440 6.883,192.000 7.200 C 191.560 7.517,191.200 8.097,191.200 8.488 C 191.200 8.880,191.020 9.200,190.800 9.200 C 190.580 9.200,190.400 9.470,190.400 9.800 C 190.400 10.130,190.220 10.400,190.000 10.400 C 189.780 10.400,189.600 10.670,189.600 11.000 C 189.600 11.330,189.454 11.600,189.275 11.600 C 189.096 11.600,188.702 12.230,188.400 13.000 C 188.098 13.770,187.704 14.400,187.525 14.400 C 187.346 14.400,187.200 14.636,187.200 14.925 C 187.200 15.213,186.840 15.836,186.400 16.308 C 185.960 16.780,185.600 17.429,185.600 17.750 C 185.600 18.071,185.465 18.393,185.300 18.467 C 184.924 18.634,183.625 20.764,183.329 21.700 C 183.207 22.085,182.948 22.400,182.753 22.400 C 182.559 22.400,182.400 22.678,182.400 23.017 C 182.400 23.356,182.040 24.020,181.600 24.492 C 181.160 24.964,180.800 25.587,180.800 25.875 C 180.800 26.164,180.620 26.400,180.400 26.400 C 180.180 26.400,180.000 26.570,180.000 26.779 C 180.000 26.987,179.370 28.232,178.600 29.546 C 177.830 30.860,177.200 32.180,177.200 32.479 C 177.200 32.778,176.840 33.283,176.400 33.600 C 175.960 33.917,175.600 34.497,175.600 34.888 C 175.600 35.280,175.420 35.600,175.200 35.600 C 174.980 35.600,174.800 35.920,174.800 36.312 C 174.800 36.703,174.440 37.283,174.000 37.600 C 173.560 37.917,173.200 38.497,173.200 38.888 C 173.200 39.280,173.020 39.600,172.800 39.600 C 172.580 39.600,172.400 39.960,172.400 40.400 C 172.400 40.840,172.250 41.200,172.068 41.200 C 171.885 41.200,171.480 41.695,171.168 42.300 C 170.856 42.905,170.511 43.490,170.401 43.600 C 170.005 43.994,168.746 46.213,168.529 46.900 C 168.407 47.285,168.148 47.600,167.953 47.600 C 167.759 47.600,167.600 47.870,167.600 48.200 C 167.600 48.530,167.465 48.803,167.300 48.806 C 167.135 48.810,166.560 49.710,166.021 50.806 C 165.483 51.903,164.898 52.800,164.721 52.800 C 164.545 52.800,164.400 53.160,164.400 53.600 C 164.400 54.040,164.247 54.400,164.061 54.400 C 163.874 54.400,163.385 55.146,162.974 56.059 C 162.562 56.971,162.034 57.916,161.801 58.159 C 161.567 58.401,160.841 59.680,160.188 61.000 C 159.535 62.320,158.685 63.749,158.300 64.175 C 157.915 64.602,157.600 65.187,157.600 65.475 C 157.600 65.764,157.420 66.000,157.200 66.000 C 156.980 66.000,156.800 66.360,156.800 66.800 C 156.800 67.240,156.620 67.600,156.400 67.600 C 156.180 67.600,156.000 67.870,156.000 68.200 C 156.000 68.530,155.820 68.800,155.600 68.800 C 155.380 68.800,155.200 69.070,155.200 69.400 C 155.200 69.730,155.020 70.000,154.800 70.000 C 154.580 70.000,154.400 70.278,154.400 70.617 C 154.400 70.956,154.040 71.620,153.600 72.092 C 153.160 72.564,152.800 73.187,152.800 73.475 C 152.800 73.764,152.620 74.000,152.400 74.000 C 152.180 74.000,152.000 74.360,152.000 74.800 C 152.000 75.240,151.820 75.600,151.600 75.600 C 151.380 75.600,151.200 75.878,151.200 76.217 C 151.200 76.556,150.869 77.189,150.464 77.623 C 150.059 78.058,149.480 78.905,149.176 79.507 C 148.873 80.108,148.124 81.352,147.512 82.272 C 146.901 83.192,146.400 84.025,146.400 84.124 C 146.400 84.222,145.770 85.349,145.000 86.628 C 144.230 87.907,143.600 89.239,143.600 89.588 C 143.600 89.938,143.240 90.483,142.800 90.800 C 142.360 91.117,142.000 91.631,142.000 91.941 C 142.000 92.252,141.627 92.830,141.171 93.225 C 139.929 94.302,140.246 96.159,141.700 96.327 C 142.305 96.396,142.800 96.577,142.800 96.729 C 142.800 96.881,143.385 97.259,144.100 97.570 C 144.815 97.881,145.490 98.240,145.600 98.368 C 146.242 99.113,153.941 102.915,158.800 104.887 C 159.350 105.111,160.113 105.452,160.495 105.647 C 160.877 105.841,161.516 106.000,161.915 106.000 C 162.314 106.000,162.811 106.149,163.020 106.330 C 163.229 106.512,164.210 106.898,165.200 107.188 C 166.190 107.478,167.771 107.959,168.714 108.258 C 169.657 108.556,171.052 108.800,171.814 108.800 C 172.576 108.800,173.200 108.980,173.200 109.200 C 173.200 109.420,174.100 109.600,175.200 109.600 C 176.300 109.600,177.200 109.780,177.200 110.000 C 177.200 110.220,178.100 110.400,179.200 110.400 C 180.300 110.400,181.200 110.580,181.200 110.800 C 181.200 111.043,183.000 111.200,185.800 111.200 C 188.600 111.200,190.400 111.357,190.400 111.600 C 190.400 111.851,192.867 112.000,197.000 112.000 C 201.133 112.000,203.600 111.851,203.600 111.600 C 203.600 111.357,205.400 111.200,208.200 111.200 C 211.000 111.200,212.800 111.043,212.800 110.800 C 212.800 110.580,213.700 110.400,214.800 110.400 C 215.900 110.400,216.800 110.220,216.800 110.000 C 216.800 109.780,217.700 109.600,218.800 109.600 C 219.900 109.600,220.800 109.445,220.800 109.255 C 220.800 109.065,221.783 108.795,222.985 108.653 C 224.187 108.512,225.582 108.236,226.085 108.040 C 226.588 107.844,227.810 107.453,228.800 107.172 C 229.790 106.891,230.771 106.512,230.980 106.330 C 231.189 106.149,231.686 106.000,232.085 106.000 C 232.484 106.000,233.123 105.835,233.505 105.634 C 233.887 105.432,234.920 104.964,235.800 104.593 C 236.680 104.223,238.290 103.487,239.379 102.960 C 240.467 102.432,241.592 102.000,241.879 102.000 C 242.165 102.000,242.400 101.820,242.400 101.600 C 242.400 101.380,242.760 101.200,243.200 101.200 C 243.640 101.200,244.000 101.020,244.000 100.800 C 244.000 100.580,244.360 100.400,244.800 100.400 C 245.240 100.400,245.600 100.220,245.600 100.000 C 245.600 99.780,245.960 99.600,246.400 99.600 C 246.840 99.600,247.200 99.420,247.200 99.200 C 247.200 98.980,247.436 98.800,247.725 98.800 C 248.013 98.800,248.636 98.440,249.108 98.000 C 249.580 97.560,250.244 97.200,250.583 97.200 C 250.922 97.200,251.200 97.020,251.200 96.800 C 251.200 96.580,251.425 96.400,251.700 96.400 C 252.465 96.399,254.400 94.588,254.400 93.872 C 254.400 93.002,253.547 91.200,253.136 91.200 C 252.951 91.200,252.800 90.840,252.800 90.400 C 252.800 89.960,252.632 89.600,252.427 89.600 C 252.222 89.600,251.940 89.241,251.801 88.802 C 251.662 88.364,251.333 87.779,251.072 87.502 C 250.810 87.226,250.163 86.145,249.635 85.100 C 249.106 84.055,248.523 83.200,248.337 83.200 C 248.152 83.200,248.000 82.840,248.000 82.400 C 248.000 81.960,247.820 81.600,247.600 81.600 C 247.380 81.600,247.200 81.330,247.200 81.000 C 247.200 80.670,247.020 80.400,246.800 80.400 C 246.580 80.400,246.400 80.130,246.400 79.800 C 246.400 79.470,246.264 79.200,246.098 79.200 C 245.931 79.200,245.571 78.694,245.297 78.075 C 245.024 77.456,244.440 76.564,244.000 76.092 C 243.560 75.620,243.200 74.956,243.200 74.617 C 243.200 74.278,243.020 74.000,242.800 74.000 C 242.580 74.000,242.400 73.640,242.400 73.200 C 242.400 72.760,242.259 72.400,242.086 72.400 C 241.914 72.400,241.239 71.323,240.586 70.007 C 239.934 68.690,239.265 67.610,239.100 67.607 C 238.935 67.603,238.800 67.407,238.800 67.172 C 238.800 66.937,238.260 65.959,237.600 65.000 C 236.940 64.041,236.400 63.063,236.400 62.828 C 236.400 62.593,236.220 62.400,236.000 62.400 C 235.780 62.400,235.600 62.080,235.600 61.688 C 235.600 61.297,235.240 60.717,234.800 60.400 C 234.360 60.083,234.000 59.503,234.000 59.112 C 234.000 58.720,233.820 58.400,233.600 58.400 C 233.380 58.400,233.200 58.080,233.200 57.688 C 233.200 57.297,232.840 56.717,232.400 56.400 C 231.960 56.083,231.600 55.503,231.600 55.112 C 231.600 54.720,231.420 54.400,231.200 54.400 C 230.980 54.400,230.800 54.040,230.800 53.600 C 230.800 53.160,230.650 52.800,230.468 52.800 C 230.285 52.800,229.880 52.305,229.568 51.700 C 229.256 51.095,228.911 50.510,228.801 50.400 C 228.405 50.006,227.146 47.787,226.929 47.100 C 226.807 46.715,226.548 46.400,226.353 46.400 C 226.159 46.400,226.000 46.145,226.000 45.833 C 226.000 45.522,225.865 45.207,225.700 45.133 C 225.535 45.060,225.121 44.460,224.779 43.800 C 223.585 41.494,222.198 38.998,222.000 38.800 C 221.890 38.690,221.575 38.195,221.300 37.700 C 221.025 37.205,220.575 36.395,220.300 35.900 C 220.025 35.405,219.710 34.910,219.600 34.800 C 219.490 34.690,219.175 34.195,218.900 33.700 C 218.625 33.205,218.175 32.395,217.900 31.900 C 217.625 31.405,217.310 30.910,217.199 30.800 C 217.089 30.690,216.745 30.108,216.435 29.507 C 216.126 28.905,215.541 28.058,215.136 27.623 C 214.731 27.189,214.400 26.556,214.400 26.217 C 214.400 25.878,214.220 25.600,214.000 25.600 C 213.780 25.600,213.600 25.364,213.600 25.075 C 213.600 24.787,213.240 24.164,212.800 23.692 C 212.360 23.220,212.000 22.556,212.000 22.217 C 212.000 21.878,211.820 21.600,211.600 21.600 C 211.380 21.600,211.200 21.330,211.200 21.000 C 211.200 20.670,211.020 20.400,210.800 20.400 C 210.580 20.400,210.400 20.130,210.400 19.800 C 210.400 19.470,210.220 19.200,210.000 19.200 C 209.780 19.200,209.600 18.840,209.600 18.400 C 209.600 17.960,209.420 17.600,209.200 17.600 C 208.980 17.600,208.800 17.398,208.800 17.151 C 208.800 16.904,207.990 15.367,207.000 13.736 C 206.010 12.106,205.200 10.598,205.200 10.386 C 205.200 10.174,205.055 10.000,204.879 10.000 C 204.702 10.000,204.117 9.103,203.579 8.006 C 203.040 6.910,202.465 6.010,202.300 6.006 C 202.135 6.003,202.000 5.764,202.000 5.475 C 202.000 5.187,201.640 4.564,201.200 4.092 C 200.760 3.620,200.400 2.956,200.400 2.617 C 200.400 2.278,200.263 2.000,200.095 2.000 C 199.927 2.000,199.612 1.595,199.395 1.100 C 198.964 0.118,195.600 -0.505,195.600 0.398 M174.587 302.800 C 174.587 315.230,174.638 320.315,174.700 314.100 C 174.762 307.885,174.762 297.715,174.700 291.500 C 174.638 285.285,174.587 290.370,174.587 302.800 " stroke="none" fill="#7B7B7B" fill-rule="evenodd"></path><path id="path1" d="M117.600 267.000 L 117.600 400.000 146.266 400.000 L 174.931 400.000 174.609 346.500 C 174.432 317.075,174.178 261.320,174.044 222.600 L 173.800 152.200 172.900 152.072 C 172.405 152.002,172.000 151.777,172.000 151.572 C 172.000 151.367,171.651 151.200,171.224 151.200 C 170.797 151.200,170.336 151.020,170.200 150.800 C 170.064 150.580,169.434 150.400,168.800 150.400 C 168.166 150.400,167.536 150.220,167.400 150.000 C 167.264 149.780,166.713 149.600,166.176 149.600 C 165.639 149.600,165.200 149.440,165.200 149.245 C 165.200 149.050,164.705 148.791,164.100 148.670 C 161.771 148.201,160.592 147.871,160.400 147.634 C 160.290 147.498,159.300 147.160,158.200 146.883 C 157.100 146.606,155.300 146.049,154.200 145.645 C 150.395 144.248,148.196 143.596,147.300 143.598 C 146.805 143.599,146.400 143.420,146.400 143.200 C 146.400 142.980,145.860 142.800,145.200 142.800 C 144.540 142.800,144.000 142.620,144.000 142.400 C 144.000 142.180,143.561 142.000,143.024 142.000 C 142.487 142.000,141.936 141.820,141.800 141.600 C 141.664 141.380,141.023 141.200,140.376 141.200 C 139.729 141.200,139.200 141.020,139.200 140.800 C 139.200 140.580,138.750 140.400,138.200 140.400 C 137.650 140.400,137.200 140.220,137.200 140.000 C 137.200 139.780,136.480 139.600,135.600 139.600 C 134.720 139.600,134.000 139.420,134.000 139.200 C 134.000 138.980,133.651 138.800,133.224 138.800 C 132.797 138.800,132.336 138.620,132.200 138.400 C 132.064 138.180,131.511 138.000,130.971 138.000 C 130.431 138.000,129.632 137.820,129.195 137.600 C 128.758 137.380,128.042 137.020,127.605 136.800 C 127.168 136.580,126.459 136.400,126.029 136.400 C 125.599 136.400,125.136 136.220,125.000 136.000 C 124.864 135.780,124.324 135.600,123.800 135.600 C 123.276 135.600,122.736 135.420,122.600 135.200 C 122.464 134.980,121.913 134.800,121.376 134.800 C 120.839 134.800,120.400 134.620,120.400 134.400 C 120.400 134.180,119.770 134.000,119.000 134.000 L 117.600 134.000 117.600 267.000 M279.200 134.400 C 279.200 134.620,278.750 134.800,278.200 134.800 C 277.650 134.800,277.200 134.980,277.200 135.200 C 277.200 135.420,276.671 135.600,276.024 135.600 C 275.377 135.600,274.736 135.780,274.600 136.000 C 274.464 136.220,273.913 136.400,273.376 136.400 C 272.839 136.400,272.400 136.580,272.400 136.800 C 272.400 137.020,271.860 137.200,271.200 137.200 C 270.540 137.200,270.000 137.380,270.000 137.600 C 270.000 137.820,269.370 138.000,268.600 138.000 C 267.830 138.000,267.200 138.180,267.200 138.400 C 267.200 138.620,266.750 138.800,266.200 138.800 C 265.650 138.800,265.200 138.980,265.200 139.200 C 265.200 139.420,264.671 139.600,264.024 139.600 C 263.377 139.600,262.736 139.780,262.600 140.000 C 262.464 140.220,261.913 140.400,261.376 140.400 C 260.839 140.400,260.400 140.580,260.400 140.800 C 260.400 141.020,259.770 141.200,259.000 141.200 C 258.230 141.200,257.600 141.380,257.600 141.600 C 257.600 141.820,257.060 142.000,256.400 142.000 C 255.740 142.000,255.200 142.180,255.200 142.400 C 255.200 142.620,254.761 142.800,254.224 142.800 C 253.687 142.800,253.136 142.980,253.000 143.200 C 252.864 143.420,252.418 143.600,252.010 143.600 C 251.601 143.600,249.316 144.231,246.933 145.003 C 244.550 145.775,241.970 146.597,241.200 146.830 C 240.430 147.062,239.440 147.396,239.000 147.571 C 238.560 147.746,237.480 148.106,236.600 148.371 C 235.720 148.636,234.640 149.000,234.200 149.181 C 233.760 149.361,232.590 149.727,231.600 149.993 C 230.610 150.260,229.487 150.640,229.105 150.839 C 228.723 151.038,228.138 151.200,227.805 151.200 C 227.472 151.200,227.200 151.380,227.200 151.600 C 227.200 151.820,226.860 152.000,226.444 152.000 C 225.186 152.000,225.202 150.711,224.944 277.500 L 224.695 400.000 253.547 400.000 L 282.400 400.000 282.400 267.000 L 282.400 134.000 280.800 134.000 C 279.920 134.000,279.200 134.180,279.200 134.400 " stroke="none" fill="#7B7B7B" fill-rule="evenodd"></path></g></svg>